<?xml version="1.0" encoding="utf-8"?>
<!-- Generator: Adobe Illustrator 17.1.0, SVG Export Plug-In . SVG Version: 6.00 Build 0)  -->
<!DOCTYPE svg PUBLIC "-//W3C//DTD SVG 1.1//EN" "http://www.w3.org/Graphics/SVG/1.1/DTD/svg11.dtd">
<svg version="1.1" id="Layer_1" xmlns="http://www.w3.org/2000/svg" xmlns:xlink="http://www.w3.org/1999/xlink" x="0px" y="0px"
	 viewBox="0 0 600 600" enable-background="new 0 0 600 600" xml:space="preserve">
<rect fill="#CCCCCC" width="600" height="600"/>
<path fill="#FFFFFF" d="M368.6,299.5l109.7-109.7c7.5-7.5,7.5-19.7,0-27.3L437,121.2c-7.5-7.5-19.7-7.5-27.3,0L300,230.9
	L190.3,121.2c-7.5-7.5-19.7-7.5-27.3,0l-41.3,41.3c-7.5,7.5-7.5,19.7,0,27.3l109.7,109.7L121.7,409.2c-7.5,7.5-7.5,19.7,0,27.3
	l41.3,41.3c7.5,7.5,19.7,7.5,27.3,0L300,368.1l109.7,109.7c7.5,7.5,19.7,7.5,27.3,0l41.3-41.3c7.5-7.5,7.5-19.7,0-27.3L368.6,299.5z
	"/>
<path d="M368.6,306.5l109.7-109.7c7.5-7.5,7.5-19.7,0-27.3L437,128.2c-7.5-7.5-19.7-7.5-27.3,0L300,237.9L190.3,128.2
	c-7.5-7.5-19.7-7.5-27.3,0l-41.3,41.3c-7.5,7.5-7.5,19.7,0,27.3l109.7,109.7L121.7,416.2c-7.5,7.5-7.5,19.7,0,27.3l41.3,41.3
	c7.5,7.5,19.7,7.5,27.3,0L300,375.1l109.7,109.7c7.5,7.5,19.7,7.5,27.3,0l41.3-41.3c7.5-7.5,7.5-19.7,0-27.3L368.6,306.5z"/>
</svg>
