<?xml version="1.0" encoding="utf-8"?>
<!-- Generator: Adobe Illustrator 17.1.0, SVG Export Plug-In . SVG Version: 6.00 Build 0)  -->
<!DOCTYPE svg PUBLIC "-//W3C//DTD SVG 1.1//EN" "http://www.w3.org/Graphics/SVG/1.1/DTD/svg11.dtd">
<svg version="1.1" id="Layer_1" xmlns="http://www.w3.org/2000/svg" xmlns:xlink="http://www.w3.org/1999/xlink" x="0px" y="0px"
	 viewBox="0 0 600 600" enable-background="new 0 0 600 600" xml:space="preserve">
<rect fill="#FFFFFF" width="600" height="600"/>
<path fill="#D4EEF9" stroke="#29ABE2" stroke-width="18.2541" d="M447.6,257.4c-7.6-52.5-52.7-92.8-107.3-92.8
	c-42.5,0-79.3,24.4-97.1,60c-9.4-4.1-19.8-6.4-30.7-6.4c-42.7,0-77.3,34.6-77.3,77.3c0,3.7,0.3,7.2,0.8,10.8c-0.3,0-0.5,0-0.8,0
	c-28.5,0-51.5,23.1-51.5,51.5c0,28.5,23.1,51.5,51.5,51.5c0,0,274,0,309.2,0s75.8-36,75.8-77.3C520.3,291.5,488,258.5,447.6,257.4z"
	/>
</svg>
