<?xml version="1.0" encoding="utf-8"?>
<!-- Generator: Adobe Illustrator 17.1.0, SVG Export Plug-In . SVG Version: 6.00 Build 0)  -->
<!DOCTYPE svg PUBLIC "-//W3C//DTD SVG 1.1//EN" "http://www.w3.org/Graphics/SVG/1.1/DTD/svg11.dtd">
<svg version="1.1" id="Layer_1" xmlns="http://www.w3.org/2000/svg" xmlns:xlink="http://www.w3.org/1999/xlink" x="0px" y="0px"
	 viewBox="0 0 600 600" enable-background="new 0 0 600 600" xml:space="preserve">
<rect fill="#FFFFFF" width="600" height="600"/>
<path d="M220.9,76.3c-2.3,0.1-4.7,0.9-7.5,3.1c-6.8-2.6-13.3-3.5-19.2,1.8c-9.1-1.2-12,1.3-14.2,4.1c-2,0-14.9-2.1-20.8,6.8
	c-14.9-1.8-19.6,8.7-14.2,18.5c-3,4.7-6.2,9.3,0.9,18.3c-2.5,5-1,10.4,5,17c-1.6,7,1.5,12,7,15.8c-1,9.6,8.8,15.2,11.7,17.2
	c1.1,5.6,3.5,10.9,14.7,13.8c1.8,8.3,8.6,9.8,15.1,11.5c-21.6,12.6-40.1,29.1-40,69.6l-3.2,5.7c-24.8,15.1-47.1,63.5-12.2,102.8
	c2.3,12.3,6.1,21.2,9.5,31c5.1,39.5,38.3,57.9,47,60.1c12.8,9.8,26.5,19,45,25.5c17.4,18,36.3,24.8,55.3,24.8c0.3,0,0.6,0,0.8,0
	c19,0,37.9-6.8,55.3-24.8c18.5-6.5,32.1-15.8,45-25.5c8.8-2.2,41.9-20.7,47-60.1c3.4-9.8,7.2-18.6,9.5-31
	c34.8-39.3,12.6-87.8-12.2-102.8l-3.2-5.7c0.1-40.5-18.4-57-40-69.6c6.5-1.8,13.3-3.2,15.1-11.5c11.2-2.9,13.6-8.2,14.7-13.8
	c2.9-2,12.8-7.6,11.7-17.2c5.5-3.9,8.6-8.8,7-15.8c5.9-6.6,7.5-12,5-17c7.1-9,4-13.6,0.9-18.3c5.3-9.8,0.6-20.3-14.2-18.5
	c-5.9-8.8-18.8-6.8-20.8-6.8c-2.2-2.8-5.2-5.2-14.2-4.1c-5.9-5.3-12.4-4.4-19.2-1.8c-8-6.3-13.4-1.3-19.4,0.7
	c-9.7-3.2-12,1.2-16.7,3c-10.6-2.3-13.8,2.6-18.9,7.8l-5.9-0.1c-16,9.4-24,28.7-26.8,38.5c-2.8-9.9-10.8-29.1-26.7-38.5l-6,0.1
	c-5.1-5.2-8.3-10-18.9-7.8c-4.8-1.8-7-6.1-16.7-3C228.8,78.8,225.2,76.2,220.9,76.3L220.9,76.3z"/>
<path fill="#75A928" d="M189,117.8c42.5,21.9,67.1,39.6,80.7,54.7c-6.9,27.8-43.1,29-56.3,28.2c2.7-1.3,5-2.8,5.8-5.1
	c-3.3-2.3-15.1-0.2-23.3-4.9c3.2-0.6,4.6-1.3,6.1-3.6c-7.8-2.5-16.1-4.6-21-8.7c2.6,0,5.1,0.6,8.6-1.8c-6.9-3.8-14.4-6.7-20.1-12.4
	c3.6-0.1,7.5,0,8.6-1.3c-6.4-3.9-11.7-8.3-16.2-13.1c5,0.6,7.1,0.1,8.3-0.8c-4.8-4.9-10.9-9.1-13.8-15.1c3.7,1.3,7.1,1.8,9.6-0.1
	c-1.6-3.7-8.6-5.9-12.7-14.5c3.9,0.4,8.1,0.8,8.9,0c-1.8-7.4-5-11.6-8-15.9c8.4-0.1,21.2,0,20.6-0.7l-5.2-5.3
	c8.2-2.2,16.6,0.4,22.7,2.3c2.7-2.2-0.1-4.9-3.4-7.7c7,0.9,13.3,2.5,19,4.7c3-2.8-2-5.5-4.4-8.3c10.8,2.1,15.4,4.9,19.9,7.8
	c3.3-3.2,0.2-5.8-2-8.6c8.1,3,12.3,6.9,16.7,10.7c1.5-2,3.8-3.5,1-8.3c5.8,3.3,10.1,7.2,13.3,11.6c3.6-2.3,2.1-5.4,2.1-8.3
	c6,4.9,9.8,10.1,14.5,15.1c0.9-0.7,1.8-3,2.5-6.7c14.3,13.9,34.5,48.8,5.2,62.7C251.8,144,222,129.1,189,117.8L189,117.8z"/>
<path fill="#75A928" d="M414.3,117.8c-42.5,21.9-67.1,39.6-80.7,54.7c6.9,27.8,43.1,29,56.3,28.2c-2.7-1.3-5-2.8-5.8-5.1
	c3.3-2.3,15.1-0.2,23.3-4.9c-3.2-0.6-4.6-1.3-6.1-3.6c7.8-2.5,16.1-4.6,21-8.7c-2.6,0-5.1,0.6-8.6-1.8c6.9-3.8,14.4-6.7,20.1-12.4
	c-3.6-0.1-7.5,0-8.6-1.3c6.4-3.9,11.7-8.3,16.2-13.1c-5,0.6-7.1,0.1-8.3-0.8c4.8-4.9,10.9-9.1,13.8-15.1c-3.7,1.3-7.1,1.8-9.6-0.1
	c1.6-3.7,8.6-5.9,12.7-14.5c-3.9,0.4-8.1,0.8-8.9,0c1.8-7.4,5-11.6,8-15.9c-8.4-0.1-21.2,0-20.6-0.7l5.2-5.3
	c-8.2-2.2-16.6,0.4-22.7,2.3c-2.7-2.2,0.1-4.9,3.4-7.7c-7,0.9-13.3,2.5-19,4.7c-3-2.8,2-5.5,4.4-8.3c-10.8,2.1-15.4,4.9-19.9,7.8
	c-3.3-3.2-0.2-5.8,2-8.6c-8.1,3-12.3,6.9-16.7,10.7c-1.5-2-3.8-3.5-1-8.3c-5.8,3.3-10.1,7.2-13.3,11.6c-3.6-2.3-2.1-5.4-2.1-8.3
	c-6,4.9-9.8,10.1-14.5,15.1c-0.9-0.7-1.8-3-2.5-6.7c-14.3,13.9-34.5,48.8-5.2,62.7C351.5,144,381.3,129.1,414.3,117.8L414.3,117.8z"
	/>
<path fill="#BC1142" d="M353.1,400.5c0.1,25.9-22.5,47-50.6,47.2c-28.1,0.1-51-20.7-51.1-46.7c0-0.2,0-0.3,0-0.5
	c-0.1-25.9,22.5-47,50.6-47.2s51,20.7,51.1,46.7C353.1,400.2,353.1,400.4,353.1,400.5z"/>
<path fill="#BC1142" d="M272.8,266.5c21.1,13.8,24.9,45.1,8.5,69.9c-16.4,24.8-46.8,33.7-67.9,19.9l0,0
	c-21.1-13.8-24.9-45.1-8.5-69.9C221.3,261.6,251.7,252.7,272.8,266.5L272.8,266.5z"/>
<path fill="#BC1142" d="M329.7,264c-21.1,13.8-24.9,45.1-8.5,69.9c16.4,24.8,46.8,33.7,67.9,19.9l0,0c21.1-13.8,24.9-45.1,8.5-69.9
	C381.1,259.1,350.7,250.2,329.7,264L329.7,264z"/>
<path fill="#BC1142" d="M167.4,289.1c22.8-6.1,7.7,94.1-10.8,85.9C136.2,358.6,129.7,310.7,167.4,289.1z"/>
<path fill="#BC1142" d="M430.4,287.9c-22.8-6.1-7.7,94.2,10.8,85.9C461.6,357.4,468.2,309.4,430.4,287.9L430.4,287.9z"/>
<path fill="#BC1142" d="M353.1,213.2c39.3-6.6,72,16.7,70.6,59.3C422.4,288.8,338.6,215.6,353.1,213.2z"/>
<path fill="#BC1142" d="M244.6,212c-39.3-6.6-72,16.7-70.6,59.3C175.3,287.6,259.1,214.4,244.6,212L244.6,212z"/>
<path fill="#BC1142" d="M301,202c-23.4-0.6-45.9,17.4-46,27.8c-0.1,12.7,18.5,25.7,46.1,26c28.2,0.2,46.2-10.4,46.3-23.5
	C347.5,217.5,321.8,201.8,301,202L301,202z"/>
<path fill="#BC1142" d="M302.4,462.3c20.4-0.9,47.9,6.6,47.9,16.5c0.4,9.6-24.9,31.4-49.3,31c-25.3,1.1-50-20.7-49.7-28.2
	C251,470.4,282.1,461.8,302.4,462.3L302.4,462.3z"/>
<path fill="#BC1142" d="M227,403.5c14.6,17.5,21.2,48.3,9.1,57.4c-11.5,6.9-39.4,4.1-59.2-24.4c-13.4-23.9-11.7-48.2-2.3-55.4
	C188.6,372.6,210.3,384.1,227,403.5L227,403.5z"/>
<path fill="#BC1142" d="M375,397.9c-15.7,18.4-24.5,52.1-13,62.9c11,8.4,40.5,7.2,62.2-23c15.8-20.3,10.5-54.2,1.5-63.2
	C412.3,364.3,393,377.6,375,397.9L375,397.9z"/>
</svg>
