<?xml version="1.0" encoding="utf-8"?>
<!-- Generator: Adobe Illustrator 17.1.0, SVG Export Plug-In . SVG Version: 6.00 Build 0)  -->
<!DOCTYPE svg PUBLIC "-//W3C//DTD SVG 1.1//EN" "http://www.w3.org/Graphics/SVG/1.1/DTD/svg11.dtd">
<svg version="1.1" id="Layer_1" xmlns="http://www.w3.org/2000/svg" xmlns:xlink="http://www.w3.org/1999/xlink" x="0px" y="0px"
	 viewBox="0 -256 2048 2048" enable-background="new 0 -256 2048 2048" xml:space="preserve">
<path d="M753.9,3.5c-7.7,0.2-16,3.1-25.5,10.5c-23.1-8.9-45.5-12-65.5,6.1c-30.9-4-41,4.3-48.6,13.9c-6.8-0.1-50.8-7-71,23.1
	c-50.7-6-66.8,29.8-48.6,63.3c-10.4,16-21.1,31.9,3.1,62.5c-8.6,17-3.3,35.5,16.9,57.9c-5.3,23.9,5.1,40.8,23.9,54
	c-3.5,32.8,30,51.8,40.1,58.6c3.8,19.1,11.9,37.1,50.2,47.1c6.3,28.5,29.4,33.4,51.7,39.3c-73.7,42.9-137,99.2-136.5,237.6
	l-10.8,19.3c-84.5,51.4-160.6,216.7-41.7,351c7.8,42,20.8,72.2,32.4,105.7c17.4,134.7,130.6,197.7,160.5,205.2
	c43.8,33.3,90.4,65,153.5,87.1c59.5,61.3,123.9,84.7,188.7,84.7c0.9,0,1.9,0,2.9,0c64.8,0,129.2-23.3,188.7-84.7
	c63.1-22.2,109.7-53.8,153.5-87.1c29.9-7.5,143.1-70.5,160.5-205.2c11.6-33.4,24.6-63.6,32.4-105.7c118.9-134.3,42.9-299.6-41.7-351
	l-10.8-19.3c0.4-138.4-62.8-194.7-136.5-237.6c22.3-6,45.3-10.9,51.7-39.3c38.3-10,46.4-28,50.2-47.1c10-6.8,43.6-25.8,40.1-58.6
	c18.8-13.2,29.3-30.1,23.9-54c20.2-22.4,25.5-40.8,16.9-57.9c24.2-30.6,13.5-46.4,3.1-62.5c18.2-33.4,2.1-69.3-48.6-63.3
	c-20.2-30.1-64.2-23.3-71-23.1c-7.6-9.7-17.7-17.9-48.6-13.9c-20-18.1-42.4-15-65.5-6.1c-27.4-21.6-45.6-4.3-66.3,2.3
	c-33.2-10.9-40.8,4-57.1,10.1c-36.2-7.7-47.2,9-64.6,26.6l-20.2-0.4c-54.6,32.2-81.8,97.8-91.4,131.5
	c-9.6-33.7-36.7-99.3-91.3-131.5L916.5,53c-17.4-17.6-28.4-34.3-64.6-26.6c-16.3-6.1-23.9-20.9-57.1-10.1
	C781.1,12,768.6,3.1,753.9,3.5L753.9,3.5z"/>
<path fill="#75A928" d="M645.1,145.2c145,74.7,229.2,135.2,275.4,186.7c-23.6,94.8-147,99.1-192.1,96.4c9.2-4.3,16.9-9.4,19.7-17.4
	c-11.3-8-51.4-0.8-79.5-16.6c10.8-2.2,15.8-4.4,20.8-12.3c-26.5-8.4-55-15.7-71.7-29.7c9,0.1,17.5,2,29.3-6.2
	c-23.7-12.8-49-22.9-68.7-42.4c12.3-0.3,25.5-0.1,29.3-4.6c-21.7-13.4-40-28.4-55.2-44.7c17.2,2.1,24.4,0.3,28.5-2.7
	c-16.4-16.8-37.2-31-47.1-51.7c12.7,4.4,24.4,6.1,32.8-0.4c-5.6-12.6-29.5-20-43.2-49.4c13.4,1.3,27.6,2.9,30.5,0
	c-6.2-25.4-16.9-39.6-27.4-54.4c28.7-0.4,72.2,0.1,70.2-2.3l-17.7-18.1c28-7.5,56.7,1.2,77.5,7.7c9.3-7.4-0.2-16.7-11.6-26.2
	c23.8,3.2,45.3,8.7,64.8,16.2c10.4-9.4-6.7-18.8-15-28.2c36.8,7,52.4,16.8,67.9,26.6c11.2-10.8,0.6-19.9-6.9-29.3
	c27.7,10.3,42,23.5,57.1,36.6c5.1-6.9,13-11.9,3.5-28.5c19.7,11.4,34.5,24.7,45.5,39.7c12.2-7.8,7.3-18.4,7.3-28.2
	c20.5,16.7,33.5,34.4,49.4,51.7c3.2-2.3,6-10.2,8.5-22.8c48.8,47.4,117.9,166.7,17.7,214.1C859.6,234.6,757.8,183.5,645.1,145.2
	L645.1,145.2z"/>
<path fill="#75A928" d="M1414.2,145.2c-144.9,74.7-229.2,135.2-275.4,186.7c23.6,94.8,147,99.1,192.1,96.4
	c-9.2-4.3-16.9-9.4-19.7-17.4c11.3-8,51.4-0.8,79.5-16.6c-10.8-2.2-15.8-4.4-20.8-12.3c26.5-8.4,55-15.7,71.7-29.7
	c-9,0.1-17.5,2-29.3-6.2c23.7-12.8,49-22.9,68.7-42.4c-12.3-0.3-25.5-0.1-29.3-4.6c21.7-13.4,40-28.4,55.2-44.7
	c-17.2,2.1-24.4,0.3-28.5-2.7c16.4-16.8,37.2-31,47.1-51.7c-12.7,4.4-24.4,6.1-32.8-0.4c5.6-12.6,29.5-20,43.2-49.4
	c-13.4,1.3-27.6,2.9-30.5,0c6.2-25.4,16.9-39.6,27.4-54.4c-28.7-0.4-72.2,0.1-70.2-2.3l17.7-18.1c-28-7.5-56.7,1.2-77.5,7.7
	c-9.3-7.4,0.2-16.7,11.6-26.2c-23.8,3.2-45.3,8.7-64.8,16.2c-10.4-9.4,6.7-18.8,15-28.2c-36.8,7-52.4,16.8-67.9,26.6
	c-11.2-10.8-0.6-19.9,6.9-29.3c-27.7,10.3-42,23.5-57.1,36.6c-5.1-6.9-13-11.9-3.5-28.5c-19.7,11.4-34.5,24.7-45.5,39.7
	c-12.2-7.8-7.3-18.4-7.3-28.2c-20.5,16.7-33.5,34.4-49.4,51.7c-3.2-2.3-6-10.2-8.5-22.8c-48.8,47.4-117.9,166.7-17.7,214.1
	C1199.7,234.6,1301.5,183.5,1414.2,145.2L1414.2,145.2z"/>
<path fill="#BC1142" d="M1205.2,1110.1c0.5,88.4-76.8,160.5-172.7,161c-95.9,0.5-174-70.8-174.5-159.3c0-0.6,0-1.1,0-1.7
	c-0.5-88.4,76.8-160.5,172.7-161c95.9-0.5,174,70.8,174.5,159.3C1205.2,1109,1205.2,1109.5,1205.2,1110.1z"/>
<path fill="#BC1142" d="M931.1,652.7c71.9,47.1,84.9,154,29,238.6c-55.9,84.7-159.6,115.1-231.6,67.9l0,0
	c-71.9-47.1-84.9-154-29-238.6C755.5,636,859.2,605.6,931.1,652.7L931.1,652.7z"/>
<path fill="#BC1142" d="M1125.3,644.2c-71.9,47.1-84.9,154-29,238.6c55.9,84.7,159.6,115.1,231.6,67.9l0,0
	c71.9-47.1,84.9-154,29-238.6C1300.9,627.5,1197.2,597.1,1125.3,644.2L1125.3,644.2z"/>
<path fill="#BC1142" d="M571.5,729.8c77.7-20.8,26.2,321.3-37,293.3C465,967.1,442.7,803.4,571.5,729.8z"/>
<path fill="#BC1142" d="M1469.2,725.5c-77.7-20.8-26.2,321.4,37,293.3C1575.7,962.9,1598.1,799.1,1469.2,725.5L1469.2,725.5z"/>
<path fill="#BC1142" d="M1205.3,470.7c134-22.6,245.6,57,241.1,202.4C1441.9,728.8,1155.9,479,1205.3,470.7z"/>
<path fill="#BC1142" d="M834.9,466.5c-134.1-22.6-245.6,57-241.1,202.4C598.2,724.5,884.3,474.8,834.9,466.5L834.9,466.5z"/>
<path fill="#BC1142" d="M1027.5,432.6c-80-2.1-156.8,59.4-157,95c-0.2,43.3,63.3,87.7,157.5,88.8c96.3,0.7,157.7-35.5,158-80.2
	C1186.3,485.5,1098.4,431.8,1027.5,432.6L1027.5,432.6z"/>
<path fill="#BC1142" d="M1032.3,1320.8c69.8-3,163.4,22.5,163.5,56.3c1.2,32.9-84.9,107.1-168.2,105.7
	c-86.2,3.7-170.8-70.6-169.7-96.4C856.7,1348.6,963,1319.1,1032.3,1320.8L1032.3,1320.8z"/>
<path fill="#BC1142" d="M774.7,1120.2c49.7,59.8,72.3,164.9,30.9,195.9c-39.2,23.7-134.4,13.9-202.1-83.3
	c-45.6-81.6-39.8-164.6-7.7-189C643.7,1014.7,717.7,1054.1,774.7,1120.2L774.7,1120.2z"/>
<path fill="#BC1142" d="M1280,1101.2c-53.7,62.9-83.7,177.7-44.5,214.7c37.5,28.7,138.1,24.7,212.4-78.4
	c54-69.3,35.9-184.9,5.1-215.6C1407.3,986.5,1341.5,1031.8,1280,1101.2L1280,1101.2z"/>
</svg>
